<svg id="Layer_1" data-name="Layer 1" xmlns="http://www.w3.org/2000/svg" viewBox="0 0 96.18 86.01"><defs><style>.cls-1{fill:none;}.cls-2{fill:#010101;}</style></defs><title>architecture</title><path class="cls-1" d="M73.09,27.33V11.65H6.44V27.33ZM14.29,17.16h51v4.66H14.41V17.16Z" transform="translate(-1.91 -7)"/><path class="cls-1" d="M6.44,72.67V88.35h87V72.67ZM65.25,82.84H14.41V78.18H65.25Z" transform="translate(-1.91 -7)"/><path class="cls-1" d="M93.43,27.33V11.65H77.75V27.33ZM90.62,16.67l-5.15,6.62-5.15-6.62Z" transform="translate(-1.91 -7)"/><path class="cls-1" d="M93.43,68V52.33h-87V68ZM65.25,57.84V62.5H14.41V57.84Z" transform="translate(-1.91 -7)"/><path class="cls-1" d="M75.42,32h-69V47.67h87V32ZM65.25,42.16H14.41V37.5H65.25Z" transform="translate(-1.91 -7)"/><path class="cls-2" d="M98.09,32V7H1.91V93H98.09ZM6.44,47.67V32h87V47.67Zm87,4.66V68h-87V52.33Zm0-40.68V27.33H77.75V11.65Zm-20.34,0V27.33H6.44V11.65ZM6.44,88.35V72.67h87V88.35Z" transform="translate(-1.91 -7)"/><rect class="cls-2" x="12.37" y="10.17" width="50.85" height="4.66"/><rect class="cls-2" x="12.37" y="30.51" width="50.85" height="4.66"/><rect class="cls-2" x="12.37" y="50.85" width="50.85" height="4.66"/><polygon class="cls-2" points="88.7 9.68 78.53 9.68 83.68 16.3 88.7 9.68"/><rect class="cls-2" x="12.37" y="71.18" width="50.85" height="4.66"/></svg>