<?xml version="1.0" encoding="utf-8"?>
<!-- Generator: Adobe Illustrator 23.0.6, SVG Export Plug-In . SVG Version: 6.00 Build 0)  -->
<svg version="1.1" id="Layer_1" xmlns="http://www.w3.org/2000/svg" xmlns:xlink="http://www.w3.org/1999/xlink" x="0px" y="0px"
	 viewBox="0 0 100 100" style="enable-background:new 0 0 100 100;" xml:space="preserve">
<style type="text/css">
	.st0{fill:none;}
	.st1{fill:#0D0F21;}
</style>
<path class="st0" d="M50.7,61.8c6-0.3,10.8-5.2,11.2-11.2c0.3-7-5.4-12.7-12.4-12.4c-6,0.3-10.8,5.2-11.2,11.2
	C37.8,56.4,43.6,62.2,50.7,61.8z"/>
<path class="st1" d="M31,44.1c-0.3,1.2-1.4,2-2.7,2h-4.2c-0.9,0-1.7,0.8-1.7,1.7v4.5c0,0.9,0.8,1.7,1.7,1.7h4.2c1.2,0,2.3,0.8,2.7,2
	c0.3,1.2,0.9,2.3,1.4,3.3c0.6,1.1,0.3,2.4-0.4,3.3l-3,3c-0.7,0.7-0.7,1.7,0,2.3l3.2,3.2c0.7,0.7,1.7,0.7,2.3,0l3-3
	c0.9-0.9,2.2-1.1,3.3-0.4c1.1,0.6,2.2,1,3.3,1.4c1.2,0.3,2,1.4,2,2.7V76c0,0.9,0.8,1.7,1.7,1.7h4.5c0.9,0,1.7-0.8,1.7-1.7v-4.3
	c0-1.2,0.8-2.3,2-2.7c1.2-0.3,2.3-0.9,3.3-1.4c1.1-0.6,2.4-0.3,3.3,0.4l3,3c0.7,0.7,1.7,0.7,2.3,0l3.2-3.2c0.7-0.7,0.7-1.7,0-2.3
	l-3-3c-0.9-0.9-1.1-2.2-0.4-3.3c0.6-1.1,1-2.2,1.4-3.3c0.3-1.2,1.4-2,2.7-2H76c0.9,0,1.7-0.8,1.7-1.7v-4.5c0-0.9-0.8-1.7-1.7-1.7
	h-4.2c-1.2,0-2.3-0.8-2.7-2c-0.3-1.2-0.9-2.3-1.4-3.3c-0.6-1.1-0.3-2.4,0.4-3.3l3-3c0.7-0.7,0.7-1.7,0-2.3l-3.2-3.2
	c-0.7-0.7-1.7-0.7-2.3,0l-3,3c-0.9,0.9-2.2,1.1-3.3,0.4c-1.1-0.6-2.2-1-3.3-1.4c-1.2-0.3-2-1.4-2-2.7v-4.1c0-0.9-0.8-1.7-1.7-1.7
	h-4.5c-0.9,0-1.7,0.8-1.7,1.7v4.2c0,1.2-0.8,2.3-2,2.7s-2.3,0.9-3.3,1.4c-1.1,0.6-2.4,0.3-3.3-0.4l-3-3c-0.7-0.7-1.7-0.7-2.3,0
	L29,32.2c-0.7,0.7-0.7,1.7,0,2.3l3,3c0.9,0.9,1.1,2.2,0.4,3.3C31.8,41.8,31.3,42.9,31,44.1z M49.3,38.2c7-0.3,12.7,5.4,12.4,12.4
	c-0.3,6-5.2,10.8-11.2,11.2c-7,0.3-12.7-5.4-12.4-12.4C38.5,43.4,43.4,38.5,49.3,38.2z"/>
<path class="st1" d="M11.1,76.2c0,4.4,3.5,8,8,8H27V80h-7.9c-2.1,0-3.8-1.7-3.8-3.8V58.3L7,50l8.3-8.3V23.8c0-2.1,1.7-3.8,3.8-3.8
	H27v-4.2h-7.9c-4.4,0-8,3.5-8,8V40L1.1,50.1l10.1,10.1V76.2z"/>
<path class="st1" d="M88.9,23.8c0-4.4-3.5-8-8-8H73V20h7.9c2.1,0,3.8,1.7,3.8,3.8v17.9L93,50l-8.3,8.3v17.9c0,2.1-1.7,3.8-3.8,3.8
	H73v4.2h7.9c4.4,0,8-3.5,8-8V60l10.1-10.1L88.9,39.8V23.8z"/>
</svg>
