<svg id="Layer_1" data-name="Layer 1" xmlns="http://www.w3.org/2000/svg" viewBox="0 0 98.28 90.07"><defs><style>.cls-1{fill:none;}.cls-2{fill:#0d0f21;}.cls-3{fill:#222;}.cls-4{fill:#010101;}</style></defs><title>list</title><path class="cls-1" d="M13.94,57.69a8.21,8.21,0,1,0-8.22-8.21A8.12,8.12,0,0,0,13.94,57.69Zm0-13.47a5.28,5.28,0,0,1,5.26,5.26,5.2,5.2,0,0,1-5.26,5.26,5.29,5.29,0,0,1-5.27-5.26A5.13,5.13,0,0,1,13.94,44.22Z" transform="translate(-0.85 -4.44)"/><path class="cls-1" d="M13.94,25.74a8.21,8.21,0,1,0-8.22-8.21A8.12,8.12,0,0,0,13.94,25.74Z" transform="translate(-0.85 -4.44)"/><path class="cls-1" d="M13.94,89.64a8.22,8.22,0,1,0-8.22-8.21A8,8,0,0,0,13.94,89.64Z" transform="translate(-0.85 -4.44)"/><path class="cls-2" d="M13.94,30.62A13.09,13.09,0,1,0,.85,17.53,13.15,13.15,0,0,0,13.94,30.62Zm0-21.3a8.21,8.21,0,1,1-8.22,8.21A8.12,8.12,0,0,1,13.94,9.32Z" transform="translate(-0.85 -4.44)"/><circle class="cls-2" cx="13.09" cy="45.04" r="5.26"/><path class="cls-2" d="M13.94,62.56A13.09,13.09,0,1,0,.85,49.48,13.14,13.14,0,0,0,13.94,62.56Zm0-21.29a8.21,8.21,0,1,1-8.22,8.21A8.12,8.12,0,0,1,13.94,41.27Z" transform="translate(-0.85 -4.44)"/><path class="cls-3" d="M13.94,94.51A13.09,13.09,0,1,0,.85,81.43,13.14,13.14,0,0,0,13.94,94.51Zm0-21.3a8.22,8.22,0,1,1-8.22,8.22A8.12,8.12,0,0,1,13.94,73.21Z" transform="translate(-0.85 -4.44)"/><rect class="cls-4" x="45.04" y="5.39" width="53.25" height="4.88"/><rect class="cls-4" x="34.39" y="16.04" width="63.9" height="4.88"/><rect class="cls-4" x="45.04" y="31.95" width="53.25" height="4.88"/><rect class="cls-4" x="34.39" y="42.6" width="63.9" height="4.88"/><rect class="cls-4" x="34.39" y="53.25" width="58.64" height="4.88"/><rect class="cls-4" x="45.04" y="69.28" width="53.25" height="4.88"/><rect class="cls-4" x="34.39" y="79.93" width="47.99" height="4.88"/></svg>