<svg id="Layer_1" data-name="Layer 1" xmlns="http://www.w3.org/2000/svg" viewBox="0 0 86.19 97.74"><defs><style>.cls-1{fill:#010101;}</style></defs><title>mentor</title><path class="cls-1" d="M42,22v8.45H59V22a8.48,8.48,0,0,0-8.09-8.45A6.38,6.38,0,1,0,44,7.28a6.28,6.28,0,0,0,6,6.31A8.38,8.38,0,0,0,42,22Z" transform="translate(-7.19 -0.85)"/><polygon class="cls-1" points="6.67 64.28 10.6 64.28 10.6 50.83 41.19 50.83 41.19 64.28 45.24 64.28 45.24 50.83 75.83 50.83 75.83 64.28 79.88 64.28 79.88 46.9 45.24 46.9 45.24 34.64 41.19 34.64 41.19 46.9 6.67 46.9 6.67 64.28"/><path class="cls-1" d="M16.24,81.68a6.38,6.38,0,1,0-6.91-6.31,6.29,6.29,0,0,0,5.95,6.31,8.5,8.5,0,0,0-8.09,8.45v8.46h17V90.13A8.31,8.31,0,0,0,16.24,81.68Z" transform="translate(-7.19 -0.85)"/><path class="cls-1" d="M50.88,81.68A6.38,6.38,0,1,0,44,75.37a6.28,6.28,0,0,0,6,6.31,8.5,8.5,0,0,0-8.1,8.45v8.46h17V90.13A8.49,8.49,0,0,0,50.88,81.68Z" transform="translate(-7.19 -0.85)"/><path class="cls-1" d="M85.4,81.68a6.38,6.38,0,1,0-6.9-6.31,6.29,6.29,0,0,0,6,6.31,8.5,8.5,0,0,0-8.09,8.45v8.46h17V90.13A8.31,8.31,0,0,0,85.4,81.68Z" transform="translate(-7.19 -0.85)"/></svg>