<svg id="Layer_1" data-name="Layer 1" xmlns="http://www.w3.org/2000/svg" viewBox="0 0 97.17 75.53"><defs><style>.cls-1{fill:none;}.cls-2{fill:#010101;}</style></defs><title>monitor</title><path class="cls-1" d="M7.11,71.75H93.32v-54H7.11Zm80.74-5.34H50.21V50.13H87.85Zm0-21.62H50.21V34H87.85ZM12.19,23H87.85v5.47H12.19V23Zm0,10.81H44.61V66.28H12.19Z" transform="translate(-1.25 -12.24)"/><path class="cls-2" d="M95.14,12.24H4.63a3.36,3.36,0,0,0-3.38,3.38v58A3.37,3.37,0,0,0,4.63,77H39v7.16h-3.9a1.5,1.5,0,0,0-1.57,1.56v2.08H66.1V85.68a1.5,1.5,0,0,0-1.56-1.56H60.63V77H95a3.36,3.36,0,0,0,3.38-3.39V15.75A3.14,3.14,0,0,0,95.14,12.24Zm-2,59.51H7v-54H93.19Z" transform="translate(-1.25 -12.24)"/><rect class="cls-2" x="10.94" y="21.62" width="32.43" height="32.43"/><rect class="cls-2" x="48.96" y="21.62" width="37.63" height="10.81"/><rect class="cls-2" x="48.96" y="37.89" width="37.63" height="16.28"/><rect class="cls-2" x="10.94" y="10.81" width="75.66" height="5.47"/></svg>