<svg id="Layer_1" data-name="Layer 1" xmlns="http://www.w3.org/2000/svg" viewBox="0 0 98 88.63"><defs><style>.cls-1{fill:none;}.cls-2{fill:#0d0f21;}</style></defs><title>standard</title><path class="cls-1" d="M12.59,89.7a7.27,7.27,0,0,0,7.22-7.23V75.14H12.59a7.28,7.28,0,0,0,0,14.56Z" transform="translate(-1.07 -5.25)"/><path class="cls-1" d="M87.56,9.54H40.25a11.75,11.75,0,0,1,2.6,7.22A11.54,11.54,0,0,1,40.25,24H87.56a7.28,7.28,0,0,0,7.22-7.23A7.2,7.2,0,0,0,87.56,9.54Z" transform="translate(-1.07 -5.25)"/><path class="cls-1" d="M29.18,26.13A2.14,2.14,0,0,1,31.33,24a7.23,7.23,0,1,0,0-14.45h-.45a6.79,6.79,0,0,0-6.78,6.77V70.84h0V82.36h0v1.36a1.44,1.44,0,0,1-.11.67c0,.12-.11.23-.11.34a5.29,5.29,0,0,1-.11.57c0,.11-.12.22-.12.45s-.11.34-.22.56-.12.23-.12.45-.11.34-.22.57-.12.22-.23.34-.11.34-.22.45-.12.23-.23.34-.23.34-.34.45-.22.23-.22.34-.12.22-.23.22H68.93a7.27,7.27,0,0,0,7.22-7.22v-54H31.44A2.17,2.17,0,0,1,29.18,26.13ZM57.52,47.25l2-2,9.14,9.15-9.14,9.15-2-2,7.12-7.11Zm-5.19-1.58L55,46.8,48.49,63.05l-2.71-1.12ZM41.27,45.1l2,2-7.12,7.12,7.12,7.11-2,2-9.15-9.14Z" transform="translate(-1.07 -5.25)"/><path class="cls-2" d="M87.56,5.25H30.88A11.08,11.08,0,0,0,19.81,16.31V70.84H12.59a11.52,11.52,0,0,0,0,23H68.81A11.57,11.57,0,0,0,80.33,82.36V28.28h7.23a11.52,11.52,0,0,0,0-23ZM5.36,82.47a7.28,7.28,0,0,1,7.23-7.22h7.22v7.22a7.27,7.27,0,0,1-7.22,7.23h-.12A7.25,7.25,0,0,1,5.36,82.47Zm70.68,0a7.27,7.27,0,0,1-7.23,7.23H21.51c.11-.11.11-.23.22-.23s.23-.22.23-.33.22-.34.34-.46.11-.22.22-.33a.84.84,0,0,0,.23-.46c.11-.11.11-.22.22-.34s.12-.33.23-.56.11-.23.11-.45.12-.34.23-.57.11-.22.11-.45.12-.34.12-.56.11-.23.11-.34.11-.45.11-.68V82.59h0V71.07h0V16.42a6.8,6.8,0,0,1,6.78-6.77h.45a7.23,7.23,0,0,1,0,14.45,2.15,2.15,0,1,0,0,4.29H75.93V82.47ZM87.56,24.1H40.25a11.75,11.75,0,0,0,2.6-7.22,11.54,11.54,0,0,0-2.6-7.23H87.56a7.27,7.27,0,0,1,7.22,7.23A7.2,7.2,0,0,1,87.56,24.1Z" transform="translate(-1.07 -5.25)"/><polygon class="cls-2" points="42.34 56.11 35.23 49.11 42.34 42 40.2 39.86 31.05 49.11 40.2 58.26 42.34 56.11"/><polygon class="cls-2" points="58.6 58.26 67.74 49.11 58.6 39.86 56.45 42 63.57 49.11 56.45 56.11 58.6 58.26"/><rect class="cls-2" x="41.76" y="52.86" width="17.5" height="2.94" transform="translate(-19.76 75.81) rotate(-68.2)"/></svg>