<?xml version="1.0" standalone="no"?>
<!DOCTYPE svg PUBLIC "-//W3C//DTD SVG 20010904//EN"
 "http://www.w3.org/TR/2001/REC-SVG-20010904/DTD/svg10.dtd">
<svg version="1.0" xmlns="http://www.w3.org/2000/svg"
 width="340.000000pt" height="340.000000pt" viewBox="0 0 340.000000 340.000000"
 preserveAspectRatio="xMidYMid meet">
<metadata>
Created by potrace 1.14, written by Peter Selinger 2001-2017
</metadata>
<g transform="translate(0.000000,340.000000) scale(0.100000,-0.100000)"
fill="#000000" stroke="none">
<path d="M1655 3020 c-12 -4 -26 -14 -32 -22 -10 -12 -114 -297 -275 -758 -28
-80 -54 -149 -58 -153 -4 -5 -79 78 -167 185 -88 106 -171 200 -185 208 -38
21 -96 4 -123 -36 -20 -30 -21 -42 -18 -300 1 -148 5 -547 7 -887 4 -470 9
-625 18 -645 7 -15 33 -37 58 -50 59 -29 362 -172 365 -172 4 0 173 -80 290
-136 74 -36 87 -39 165 -39 80 0 90 3 175 44 50 24 117 56 150 71 33 15 105
49 160 75 55 25 140 65 190 88 156 73 190 93 202 119 9 18 14 201 18 719 6
721 8 1051 6 1082 -1 10 -14 32 -30 48 -49 49 -121 34 -169 -34 -12 -18 -34
-46 -49 -64 -16 -17 -35 -40 -43 -50 -47 -57 -105 -129 -110 -133 -3 -3 -24
-29 -47 -58 l-41 -52 -25 67 c-29 77 -97 267 -187 523 -111 317 -119 335 -150
353 -30 18 -63 21 -95 7z"/>
</g>
</svg>
